<svg xmlns="http://www.w3.org/2000/svg" width="131" height="48" viewBox="0 0 131 48" fill="none"><rect x="0.792969" width="129.793" height="47.2158" rx="6.1079" fill="black"></rect><g clip-path="url(#clip0_38_1003)"><path d="M29.4126 28.2753C33.2779 26.2888 36.2081 24.7751 36.4607 24.6574C37.2686 24.2552 38.103 23.1908 36.4607 22.364C35.9304 22.104 33.0755 20.6374 29.4126 18.7461L24.3348 23.546L29.4126 28.2752V28.2753Z" fill="#FFD900"></path><path d="M24.3341 23.5459L8.16589 38.7982C8.5454 38.8452 8.97385 38.751 9.47898 38.4911C10.5395 37.9477 21.782 32.2011 29.4119 28.2763L24.3341 23.5459Z" fill="#F43249"></path><path d="M24.3354 23.5462L29.4132 18.7698C29.4132 18.7698 10.6175 9.16873 9.4803 8.60196C9.05185 8.36445 8.57173 8.29389 8.14209 8.36445L24.3354 23.5462Z" fill="#00EE76"></path><path d="M24.3356 23.546L8.14227 8.36426C7.48507 8.50648 6.92969 9.04995 6.92969 10.1614V37.0011C6.92969 38.0184 7.35944 38.7511 8.1674 38.8217L24.3356 23.546Z" fill="#00D3FF"></path></g><path d="M50.4371 13.527C50.3655 13.3079 50.2712 13.1116 50.154 12.9381C50.0391 12.7624 49.9013 12.6127 49.7408 12.4891C49.5825 12.3655 49.4025 12.2711 49.2008 12.2061C48.999 12.141 48.7778 12.1085 48.537 12.1085C48.1423 12.1085 47.7833 12.2104 47.4601 12.4143C47.137 12.6182 46.8799 12.9186 46.6891 13.3155C46.4982 13.7124 46.4027 14.1994 46.4027 14.7763C46.4027 15.3533 46.4993 15.8402 46.6923 16.2371C46.8853 16.6341 47.1467 16.9345 47.4764 17.1384C47.8061 17.3423 48.177 17.4442 48.5891 17.4442C48.9708 17.4442 49.307 17.3629 49.5977 17.2002C49.8905 17.0353 50.1182 16.8033 50.2809 16.5039C50.4458 16.2024 50.5282 15.8478 50.5282 15.44L50.7755 15.4921H48.7713V14.7763H51.309V15.4921C51.309 16.0409 51.1919 16.518 50.9576 16.9236C50.7256 17.3292 50.4046 17.6437 49.9946 17.8672C49.5868 18.0884 49.1183 18.199 48.5891 18.199C47.9991 18.199 47.4807 18.0602 47.0339 17.7826C46.5893 17.5049 46.2422 17.1102 45.9928 16.5983C45.7455 16.0864 45.6219 15.4791 45.6219 14.7763C45.6219 14.2493 45.6924 13.7753 45.8334 13.3545C45.9765 12.9316 46.1783 12.5715 46.4385 12.2744C46.6988 11.9772 47.0068 11.7495 47.3625 11.5911C47.7182 11.4328 48.1097 11.3536 48.537 11.3536C48.8884 11.3536 49.2159 11.4068 49.5196 11.5131C49.8254 11.6172 50.0976 11.7658 50.3362 11.9588C50.577 12.1497 50.7776 12.3785 50.9381 12.6453C51.0986 12.9099 51.2092 13.2038 51.27 13.527H50.4371ZM52.6909 18.1079V11.4447H56.7123V12.1605H53.4978V14.4119H56.5041V15.1277H53.4978V17.3921H56.7643V18.1079H52.6909ZM57.8022 12.1605V11.4447H62.7996V12.1605H60.7043V18.1079H59.8975V12.1605H57.8022ZM67.4285 11.4447V18.1079H66.6216V11.4447H67.4285ZM68.6819 12.1605V11.4447H73.6793V12.1605H71.584V18.1079H70.7772V12.1605H68.6819ZM83.1234 14.7763C83.1234 15.4791 82.9965 16.0864 82.7427 16.5983C82.4889 17.1102 82.1408 17.5049 81.6983 17.7826C81.2559 18.0602 80.7505 18.199 80.1822 18.199C79.6139 18.199 79.1086 18.0602 78.6661 17.7826C78.2236 17.5049 77.8755 17.1102 77.6217 16.5983C77.3679 16.0864 77.241 15.4791 77.241 14.7763C77.241 14.0736 77.3679 13.4662 77.6217 12.9544C77.8755 12.4425 78.2236 12.0477 78.6661 11.7701C79.1086 11.4925 79.6139 11.3536 80.1822 11.3536C80.7505 11.3536 81.2559 11.4925 81.6983 11.7701C82.1408 12.0477 82.4889 12.4425 82.7427 12.9544C82.9965 13.4662 83.1234 14.0736 83.1234 14.7763ZM82.3425 14.7763C82.3425 14.1994 82.246 13.7124 82.053 13.3155C81.8621 12.9186 81.6029 12.6182 81.2754 12.4143C80.95 12.2104 80.5856 12.1085 80.1822 12.1085C79.7788 12.1085 79.4133 12.2104 79.0858 12.4143C78.7604 12.6182 78.5012 12.9186 78.3082 13.3155C78.1173 13.7124 78.0219 14.1994 78.0219 14.7763C78.0219 15.3533 78.1173 15.8402 78.3082 16.2371C78.5012 16.6341 78.7604 16.9345 79.0858 17.1384C79.4133 17.3423 79.7788 17.4442 80.1822 17.4442C80.5856 17.4442 80.95 17.3423 81.2754 17.1384C81.6029 16.9345 81.8621 16.6341 82.053 16.2371C82.246 15.8402 82.3425 15.3533 82.3425 14.7763ZM89.7638 11.4447V18.1079H88.9829L85.352 12.8763H85.287V18.1079H84.4801V11.4447H85.2609L88.9048 16.6894H88.9699V11.4447H89.7638ZM53.118 30.2365C53.0106 29.9079 52.8691 29.6135 52.6934 29.3532C52.521 29.0897 52.3144 28.8652 52.0736 28.6797C51.8361 28.4943 51.5661 28.3527 51.2635 28.2551C50.9609 28.1575 50.629 28.1087 50.2679 28.1087C49.6758 28.1087 49.1373 28.2616 48.6525 28.5675C48.1678 28.8733 47.7822 29.3239 47.4959 29.9193C47.2096 30.5147 47.0665 31.2451 47.0665 32.1105C47.0665 32.976 47.2112 33.7064 47.5008 34.3018C47.7904 34.8972 48.1824 35.3478 48.6769 35.6536C49.1715 35.9594 49.7278 36.1123 50.346 36.1123C50.9186 36.1123 51.4229 35.9903 51.8589 35.7463C52.2981 35.4991 52.6397 35.1509 52.8837 34.7019C53.131 34.2497 53.2546 33.7178 53.2546 33.1061L53.6255 33.1842H50.6193V32.1105H54.4259V33.1842C54.4259 34.0073 54.2502 34.7231 53.8988 35.3315C53.5507 35.9399 53.0692 36.4117 52.4543 36.7468C51.8426 37.0786 51.1398 37.2446 50.346 37.2446C49.461 37.2446 48.6834 37.0363 48.0132 36.6199C47.3463 36.2034 46.8257 35.6113 46.4515 34.8435C46.0806 34.0756 45.8952 33.1647 45.8952 32.1105C45.8952 31.3199 46.0009 30.609 46.2124 29.9779C46.4271 29.3434 46.7297 28.8034 47.1201 28.3576C47.5106 27.9119 47.9726 27.5703 48.5061 27.3328C49.0397 27.0953 49.627 26.9765 50.2679 26.9765C50.795 26.9765 51.2862 27.0562 51.7417 27.2156C52.2005 27.3718 52.6088 27.5947 52.9667 27.8842C53.3278 28.1705 53.6288 28.5138 53.8695 28.914C54.1103 29.3109 54.2762 29.7517 54.3673 30.2365H53.118ZM59.3879 37.2641C58.7111 37.2641 58.1174 37.103 57.6066 36.7809C57.099 36.4588 56.7021 36.0082 56.4158 35.4291C56.1327 34.85 55.9912 34.1733 55.9912 33.3989C55.9912 32.6181 56.1327 31.9365 56.4158 31.3541C56.7021 30.7717 57.099 30.3195 57.6066 29.9974C58.1174 29.6753 58.7111 29.5142 59.3879 29.5142C60.0646 29.5142 60.6567 29.6753 61.1643 29.9974C61.6751 30.3195 62.072 30.7717 62.3551 31.3541C62.6414 31.9365 62.7845 32.6181 62.7845 33.3989C62.7845 34.1733 62.6414 34.85 62.3551 35.4291C62.072 36.0082 61.6751 36.4588 61.1643 36.7809C60.6567 37.103 60.0646 37.2641 59.3879 37.2641ZM59.3879 36.2295C59.9019 36.2295 60.3249 36.0977 60.6567 35.8342C60.9886 35.5706 61.2342 35.2241 61.3937 34.7947C61.5531 34.3652 61.6328 33.9 61.6328 33.3989C61.6328 32.8979 61.5531 32.431 61.3937 31.9983C61.2342 31.5656 60.9886 31.2158 60.6567 30.949C60.3249 30.6822 59.9019 30.5489 59.3879 30.5489C58.8738 30.5489 58.4509 30.6822 58.119 30.949C57.7871 31.2158 57.5415 31.5656 57.3821 31.9983C57.2227 32.431 57.143 32.8979 57.143 33.3989C57.143 33.9 57.2227 34.3652 57.3821 34.7947C57.5415 35.2241 57.7871 35.5706 58.119 35.8342C58.4509 36.0977 58.8738 36.2295 59.3879 36.2295ZM67.5879 37.2641C66.9112 37.2641 66.3174 37.103 65.8066 36.7809C65.2991 36.4588 64.9021 36.0082 64.6158 35.4291C64.3328 34.85 64.1913 34.1733 64.1913 33.3989C64.1913 32.6181 64.3328 31.9365 64.6158 31.3541C64.9021 30.7717 65.2991 30.3195 65.8066 29.9974C66.3174 29.6753 66.9112 29.5142 67.5879 29.5142C68.2646 29.5142 68.8568 29.6753 69.3643 29.9974C69.8751 30.3195 70.2721 30.7717 70.5551 31.3541C70.8414 31.9365 70.9846 32.6181 70.9846 33.3989C70.9846 34.1733 70.8414 34.85 70.5551 35.4291C70.2721 36.0082 69.8751 36.4588 69.3643 36.7809C68.8568 37.103 68.2646 37.2641 67.5879 37.2641ZM67.5879 36.2295C68.102 36.2295 68.5249 36.0977 68.8568 35.8342C69.1886 35.5706 69.4343 35.2241 69.5937 34.7947C69.7531 34.3652 69.8328 33.9 69.8328 33.3989C69.8328 32.8979 69.7531 32.431 69.5937 31.9983C69.4343 31.5656 69.1886 31.2158 68.8568 30.949C68.5249 30.6822 68.102 30.5489 67.5879 30.5489C67.0739 30.5489 66.6509 30.6822 66.319 30.949C65.9872 31.2158 65.7416 31.5656 65.5821 31.9983C65.4227 32.431 65.343 32.8979 65.343 33.3989C65.343 33.9 65.4227 34.3652 65.5821 34.7947C65.7416 35.2241 65.9872 35.5706 66.319 35.8342C66.6509 36.0977 67.0739 36.2295 67.5879 36.2295ZM75.7684 40.0751C75.2121 40.0751 74.7338 40.0035 74.3336 39.8604C73.9335 39.7205 73.6 39.535 73.3332 39.304C73.0697 39.0763 72.8598 38.8323 72.7036 38.572L73.6211 37.9278C73.7252 38.0644 73.857 38.2206 74.0164 38.3963C74.1758 38.5752 74.3938 38.7298 74.6704 38.8599C74.9502 38.9933 75.3162 39.06 75.7684 39.06C76.3736 39.06 76.873 38.9136 77.2667 38.6208C77.6603 38.328 77.8572 37.8692 77.8572 37.2446V35.7219H77.7596C77.675 35.8586 77.5546 36.0277 77.3984 36.2295C77.2455 36.4279 77.0243 36.6052 76.7347 36.7614C76.4484 36.9143 76.0612 36.9908 75.5732 36.9908C74.9681 36.9908 74.4247 36.8476 73.9432 36.5613C73.465 36.275 73.0859 35.8586 72.8061 35.312C72.5296 34.7654 72.3913 34.1017 72.3913 33.3208C72.3913 32.553 72.5263 31.8844 72.7964 31.3151C73.0664 30.7424 73.4422 30.3 73.9237 29.9876C74.4052 29.672 74.9616 29.5142 75.5927 29.5142C76.0808 29.5142 76.4679 29.5956 76.7542 29.7583C77.0438 29.9177 77.265 30.0999 77.418 30.3048C77.5741 30.5066 77.6945 30.6725 77.7791 30.8026H77.8962V29.6118H79.0089V37.3226C79.0089 37.9668 78.8625 38.4906 78.5697 38.8941C78.2801 39.3008 77.8897 39.5985 77.3984 39.7872C76.9104 39.9791 76.3671 40.0751 75.7684 40.0751ZM75.7294 35.9562C76.1914 35.9562 76.5818 35.8504 76.9006 35.639C77.2195 35.4275 77.4619 35.1233 77.6278 34.7263C77.7937 34.3294 77.8767 33.8544 77.8767 33.3013C77.8767 32.7612 77.7954 32.2846 77.6327 31.8714C77.47 31.4582 77.2293 31.1345 76.9104 30.9002C76.5916 30.666 76.1979 30.5489 75.7294 30.5489C75.2414 30.5489 74.8347 30.6725 74.5093 30.9198C74.1872 31.167 73.9448 31.4989 73.7822 31.9153C73.6227 32.3318 73.543 32.7938 73.543 33.3013C73.543 33.8219 73.6244 34.2822 73.787 34.6824C73.953 35.0794 74.197 35.3917 74.5191 35.6194C74.8444 35.8439 75.2479 35.9562 75.7294 35.9562ZM82.2689 27.1132V37.1079H81.1172V27.1132H82.2689ZM87.5213 37.2641C86.799 37.2641 86.176 37.1047 85.6522 36.7858C85.1316 36.4637 84.7298 36.0147 84.4467 35.4389C84.1669 34.8597 84.027 34.1863 84.027 33.4184C84.027 32.6506 84.1669 31.9739 84.4467 31.3883C84.7298 30.7994 85.1235 30.3406 85.6278 30.012C86.1353 29.6802 86.7274 29.5142 87.4042 29.5142C87.7946 29.5142 88.1801 29.5793 88.5608 29.7095C88.9414 29.8396 89.2879 30.0511 89.6003 30.3439C89.9126 30.6334 90.1615 31.0174 90.347 31.4956C90.5324 31.9739 90.6251 32.5628 90.6251 33.2623V33.7503H84.8469V32.7547H89.4539C89.4539 32.3318 89.3693 31.9544 89.2001 31.6225C89.0342 31.2907 88.7967 31.0287 88.4876 30.8368C88.1818 30.6448 87.8206 30.5489 87.4042 30.5489C86.9454 30.5489 86.5485 30.6627 86.2134 30.8905C85.8815 31.115 85.6261 31.4078 85.4472 31.7689C85.2682 32.1301 85.1788 32.5172 85.1788 32.9304V33.5941C85.1788 34.1602 85.2764 34.6401 85.4716 35.0338C85.6701 35.4242 85.945 35.7219 86.2964 35.9269C86.6477 36.1286 87.056 36.2295 87.5213 36.2295C87.8239 36.2295 88.0972 36.1872 88.3412 36.1026C88.5884 36.0147 88.8015 35.8846 88.9805 35.7122C89.1594 35.5365 89.2977 35.3185 89.3953 35.0582L90.508 35.3705C90.3909 35.7479 90.194 36.0798 89.9175 36.3661C89.641 36.6492 89.2993 36.8704 88.8926 37.0298C88.486 37.186 88.0288 37.2641 87.5213 37.2641ZM96.3985 37.1079V27.1132H99.7756C100.56 27.1132 101.201 27.2547 101.698 27.5377C102.199 27.8175 102.57 28.1966 102.811 28.6748C103.052 29.1531 103.172 29.6867 103.172 30.2756C103.172 30.8644 103.052 31.3996 102.811 31.8812C102.574 32.3627 102.206 32.7466 101.708 33.0329C101.21 33.316 100.573 33.4575 99.7951 33.4575H97.3745V32.3838H99.7561C100.293 32.3838 100.724 32.2911 101.049 32.1057C101.375 31.9202 101.611 31.6697 101.757 31.3541C101.907 31.0353 101.981 30.6757 101.981 30.2756C101.981 29.8754 101.907 29.5175 101.757 29.2019C101.611 28.8863 101.373 28.639 101.044 28.4601C100.716 28.2779 100.28 28.1868 99.7366 28.1868H97.6088V37.1079H96.3985ZM106.117 27.1132V37.1079H104.966V27.1132H106.117ZM110.433 37.2836C109.958 37.2836 109.527 37.1941 109.14 37.0152C108.752 36.833 108.445 36.5711 108.217 36.2295C107.989 35.8846 107.876 35.4681 107.876 34.9801C107.876 34.5507 107.96 34.2025 108.129 33.9357C108.299 33.6657 108.525 33.4542 108.808 33.3013C109.091 33.1484 109.403 33.0345 109.745 32.9597C110.09 32.8816 110.436 32.8198 110.784 32.7742C111.24 32.7157 111.609 32.6718 111.892 32.6425C112.178 32.6099 112.387 32.5563 112.517 32.4814C112.65 32.4066 112.717 32.2765 112.717 32.091V32.052C112.717 31.5705 112.585 31.1963 112.322 30.9295C112.061 30.6627 111.666 30.5293 111.136 30.5293C110.586 30.5293 110.155 30.6497 109.842 30.8905C109.53 31.1312 109.31 31.3883 109.184 31.6616L108.09 31.2711C108.286 30.8156 108.546 30.461 108.871 30.2072C109.2 29.9502 109.558 29.7713 109.945 29.6704C110.335 29.5663 110.719 29.5142 111.097 29.5142C111.337 29.5142 111.614 29.5435 111.926 29.6021C112.242 29.6574 112.546 29.7729 112.839 29.9486C113.135 30.1243 113.381 30.3894 113.576 30.7441C113.771 31.0987 113.869 31.5737 113.869 32.1691V37.1079H112.717V36.0928H112.658C112.58 36.2555 112.45 36.4296 112.268 36.615C112.086 36.8005 111.843 36.9582 111.541 37.0884C111.238 37.2185 110.869 37.2836 110.433 37.2836ZM110.609 36.249C111.064 36.249 111.448 36.1595 111.76 35.9806C112.076 35.8016 112.313 35.5706 112.473 35.2876C112.635 35.0045 112.717 34.7068 112.717 34.3945V33.3404C112.668 33.3989 112.561 33.4526 112.395 33.5014C112.232 33.547 112.043 33.5876 111.829 33.6234C111.617 33.6559 111.411 33.6852 111.209 33.7113C111.01 33.734 110.849 33.7536 110.726 33.7698C110.426 33.8089 110.147 33.8723 109.886 33.9601C109.629 34.0447 109.421 34.1733 109.262 34.3457C109.105 34.5149 109.027 34.7459 109.027 35.0387C109.027 35.4389 109.175 35.7414 109.471 35.9464C109.771 36.1481 110.15 36.249 110.609 36.249ZM116.444 39.9189C116.249 39.9189 116.075 39.9027 115.922 39.8701C115.769 39.8409 115.663 39.8116 115.605 39.7823L115.898 38.7672C116.177 38.8388 116.425 38.8648 116.639 38.8453C116.854 38.8258 117.044 38.7298 117.21 38.5573C117.379 38.3882 117.534 38.1132 117.674 37.7326L117.889 37.147L115.117 29.6118H116.366L118.435 35.5853H118.513L120.583 29.6118H121.832L118.65 38.2011C118.507 38.5883 118.329 38.9087 118.118 39.1625C117.907 39.4195 117.661 39.6099 117.381 39.7335C117.105 39.8571 116.792 39.9189 116.444 39.9189Z" fill="white"></path><defs><clipPath id="clip0_38_1003"><rect width="30.5395" height="30.5395" fill="white" transform="translate(6.90088 8.33838)"></rect></clipPath></defs></svg>